<svg xmlns="http://www.w3.org/2000/svg" width="900" height="560" viewBox="0 0 900 560">
<rect width="100%" height="100%" fill="white"/>
<line x1="230" y1="500" x2="860" y2="500" stroke="#333"/>
<text x="218" y="105.7" text-anchor="end" font-family="Arial" font-size="12">fs_deterministic_nonstationary</text>
<rect x="230" y="79.8" width="547.8" height="41.8" fill="#4c78a8"/>
<text x="785.8" y="105.7" font-family="Arial" font-size="12">0.998</text>
<text x="218" y="167.1" text-anchor="end" font-family="Arial" font-size="12">crr</text>
<rect x="230" y="141.3" width="521.2" height="41.8" fill="#4c78a8"/>
<text x="759.2" y="167.1" font-family="Arial" font-size="12">0.949</text>
<text x="218" y="228.6" text-anchor="end" font-family="Arial" font-size="12">n1_60cs</text>
<rect x="230" y="202.7" width="519.7" height="41.8" fill="#4c78a8"/>
<text x="757.7" y="228.6" font-family="Arial" font-size="12">0.946</text>
<text x="218" y="290.0" text-anchor="end" font-family="Arial" font-size="12">fc_pct</text>
<rect x="230" y="264.1" width="517.9" height="41.8" fill="#4c78a8"/>
<text x="755.9" y="290.0" font-family="Arial" font-size="12">0.943</text>
<text x="218" y="351.4" text-anchor="end" font-family="Arial" font-size="12">z_mid_m</text>
<rect x="230" y="325.5" width="516.8" height="41.8" fill="#4c78a8"/>
<text x="754.8" y="351.4" font-family="Arial" font-size="12">0.941</text>
<text x="218" y="412.9" text-anchor="end" font-family="Arial" font-size="12">csr</text>
<rect x="230" y="387.0" width="297.8" height="41.8" fill="#4c78a8"/>
<text x="535.8" y="412.9" font-family="Arial" font-size="12">0.542</text>
<text x="218" y="474.3" text-anchor="end" font-family="Arial" font-size="12">gw_depth_m</text>
<rect x="230" y="448.4" width="135.5" height="41.8" fill="#4c78a8"/>
<text x="373.5" y="474.3" font-family="Arial" font-size="12">0.247</text>
<text x="450.0" y="542" text-anchor="middle" font-family="Arial" font-size="14">|Spearman rho|</text>
</svg>