<svg xmlns="http://www.w3.org/2000/svg" width="820" height="560" viewBox="0 0 820 560">
<rect width="100%" height="100%" fill="white"/>
<text x="86" y="127.5" text-anchor="end" font-family="Arial" font-size="13">L1</text>
<rect x="100.0" y="70.0" width="24.0" height="105.5" fill="rgb(189,96,79)" stroke="white"/>
<rect x="123.5" y="70.0" width="24.0" height="105.5" fill="rgb(189,96,79)" stroke="white"/>
<rect x="146.9" y="70.0" width="24.0" height="105.5" fill="rgb(189,98,81)" stroke="white"/>
<rect x="170.4" y="70.0" width="24.0" height="105.5" fill="rgb(190,99,82)" stroke="white"/>
<rect x="193.8" y="70.0" width="24.0" height="105.5" fill="rgb(190,99,82)" stroke="white"/>
<rect x="217.3" y="70.0" width="24.0" height="105.5" fill="rgb(190,100,84)" stroke="white"/>
<rect x="240.8" y="70.0" width="24.0" height="105.5" fill="rgb(190,100,83)" stroke="white"/>
<rect x="264.2" y="70.0" width="24.0" height="105.5" fill="rgb(191,102,86)" stroke="white"/>
<rect x="287.7" y="70.0" width="24.0" height="105.5" fill="rgb(191,102,86)" stroke="white"/>
<rect x="311.2" y="70.0" width="24.0" height="105.5" fill="rgb(191,103,88)" stroke="white"/>
<rect x="334.6" y="70.0" width="24.0" height="105.5" fill="rgb(191,103,87)" stroke="white"/>
<rect x="358.1" y="70.0" width="24.0" height="105.5" fill="rgb(192,104,89)" stroke="white"/>
<rect x="381.5" y="70.0" width="24.0" height="105.5" fill="rgb(192,106,90)" stroke="white"/>
<rect x="405.0" y="70.0" width="24.0" height="105.5" fill="rgb(192,106,91)" stroke="white"/>
<rect x="428.5" y="70.0" width="24.0" height="105.5" fill="rgb(192,105,89)" stroke="white"/>
<rect x="451.9" y="70.0" width="24.0" height="105.5" fill="rgb(181,74,54)" stroke="white"/>
<rect x="475.4" y="70.0" width="24.0" height="105.5" fill="rgb(184,84,65)" stroke="white"/>
<rect x="498.8" y="70.0" width="24.0" height="105.5" fill="rgb(182,79,60)" stroke="white"/>
<rect x="522.3" y="70.0" width="24.0" height="105.5" fill="rgb(177,63,41)" stroke="white"/>
<rect x="545.8" y="70.0" width="24.0" height="105.5" fill="rgb(175,59,37)" stroke="white"/>
<rect x="569.2" y="70.0" width="24.0" height="105.5" fill="rgb(179,69,47)" stroke="white"/>
<rect x="592.7" y="70.0" width="24.0" height="105.5" fill="rgb(182,78,58)" stroke="white"/>
<rect x="616.2" y="70.0" width="24.0" height="105.5" fill="rgb(180,72,51)" stroke="white"/>
<rect x="639.6" y="70.0" width="24.0" height="105.5" fill="rgb(175,59,36)" stroke="white"/>
<rect x="663.1" y="70.0" width="24.0" height="105.5" fill="rgb(175,58,35)" stroke="white"/>
<rect x="686.5" y="70.0" width="24.0" height="105.5" fill="rgb(176,62,40)" stroke="white"/>
<text x="86" y="232.5" text-anchor="end" font-family="Arial" font-size="13">L2</text>
<rect x="100.0" y="175.0" width="24.0" height="105.5" fill="rgb(207,147,138)" stroke="white"/>
<rect x="123.5" y="175.0" width="24.0" height="105.5" fill="rgb(211,156,149)" stroke="white"/>
<rect x="146.9" y="175.0" width="24.0" height="105.5" fill="rgb(208,149,141)" stroke="white"/>
<rect x="170.4" y="175.0" width="24.0" height="105.5" fill="rgb(205,140,130)" stroke="white"/>
<rect x="193.8" y="175.0" width="24.0" height="105.5" fill="rgb(203,135,124)" stroke="white"/>
<rect x="217.3" y="175.0" width="24.0" height="105.5" fill="rgb(206,144,135)" stroke="white"/>
<rect x="240.8" y="175.0" width="24.0" height="105.5" fill="rgb(210,153,145)" stroke="white"/>
<rect x="264.2" y="175.0" width="24.0" height="105.5" fill="rgb(209,152,143)" stroke="white"/>
<rect x="287.7" y="175.0" width="24.0" height="105.5" fill="rgb(204,138,127)" stroke="white"/>
<rect x="311.2" y="175.0" width="24.0" height="105.5" fill="rgb(203,134,123)" stroke="white"/>
<rect x="334.6" y="175.0" width="24.0" height="105.5" fill="rgb(206,142,132)" stroke="white"/>
<rect x="358.1" y="175.0" width="24.0" height="105.5" fill="rgb(209,150,142)" stroke="white"/>
<rect x="381.5" y="175.0" width="24.0" height="105.5" fill="rgb(207,146,137)" stroke="white"/>
<rect x="405.0" y="175.0" width="24.0" height="105.5" fill="rgb(203,134,123)" stroke="white"/>
<rect x="428.5" y="175.0" width="24.0" height="105.5" fill="rgb(200,128,116)" stroke="white"/>
<rect x="451.9" y="175.0" width="24.0" height="105.5" fill="rgb(188,95,78)" stroke="white"/>
<rect x="475.4" y="175.0" width="24.0" height="105.5" fill="rgb(192,104,88)" stroke="white"/>
<rect x="498.8" y="175.0" width="24.0" height="105.5" fill="rgb(190,101,84)" stroke="white"/>
<rect x="522.3" y="175.0" width="24.0" height="105.5" fill="rgb(185,87,68)" stroke="white"/>
<rect x="545.8" y="175.0" width="24.0" height="105.5" fill="rgb(184,83,64)" stroke="white"/>
<rect x="569.2" y="175.0" width="24.0" height="105.5" fill="rgb(187,90,72)" stroke="white"/>
<rect x="592.7" y="175.0" width="24.0" height="105.5" fill="rgb(190,100,84)" stroke="white"/>
<rect x="616.2" y="175.0" width="24.0" height="105.5" fill="rgb(188,95,77)" stroke="white"/>
<rect x="639.6" y="175.0" width="24.0" height="105.5" fill="rgb(184,82,63)" stroke="white"/>
<rect x="663.1" y="175.0" width="24.0" height="105.5" fill="rgb(183,80,61)" stroke="white"/>
<rect x="686.5" y="175.0" width="24.0" height="105.5" fill="rgb(185,87,68)" stroke="white"/>
<text x="86" y="337.5" text-anchor="end" font-family="Arial" font-size="13">L3</text>
<rect x="100.0" y="280.0" width="24.0" height="105.5" fill="rgb(229,204,204)" stroke="white"/>
<rect x="123.5" y="280.0" width="24.0" height="105.5" fill="rgb(229,206,207)" stroke="white"/>
<rect x="146.9" y="280.0" width="24.0" height="105.5" fill="rgb(228,204,204)" stroke="white"/>
<rect x="170.4" y="280.0" width="24.0" height="105.5" fill="rgb(227,199,199)" stroke="white"/>
<rect x="193.8" y="280.0" width="24.0" height="105.5" fill="rgb(226,196,195)" stroke="white"/>
<rect x="217.3" y="280.0" width="24.0" height="105.5" fill="rgb(227,201,200)" stroke="white"/>
<rect x="240.8" y="280.0" width="24.0" height="105.5" fill="rgb(229,206,206)" stroke="white"/>
<rect x="264.2" y="280.0" width="24.0" height="105.5" fill="rgb(228,204,204)" stroke="white"/>
<rect x="287.7" y="280.0" width="24.0" height="105.5" fill="rgb(226,197,196)" stroke="white"/>
<rect x="311.2" y="280.0" width="24.0" height="105.5" fill="rgb(225,195,193)" stroke="white"/>
<rect x="334.6" y="280.0" width="24.0" height="105.5" fill="rgb(227,201,200)" stroke="white"/>
<rect x="358.1" y="280.0" width="24.0" height="105.5" fill="rgb(228,203,203)" stroke="white"/>
<rect x="381.5" y="280.0" width="24.0" height="105.5" fill="rgb(228,202,202)" stroke="white"/>
<rect x="405.0" y="280.0" width="24.0" height="105.5" fill="rgb(225,194,192)" stroke="white"/>
<rect x="428.5" y="280.0" width="24.0" height="105.5" fill="rgb(224,193,191)" stroke="white"/>
<rect x="451.9" y="280.0" width="24.0" height="105.5" fill="rgb(216,170,165)" stroke="white"/>
<rect x="475.4" y="280.0" width="24.0" height="105.5" fill="rgb(219,178,173)" stroke="white"/>
<rect x="498.8" y="280.0" width="24.0" height="105.5" fill="rgb(218,174,170)" stroke="white"/>
<rect x="522.3" y="280.0" width="24.0" height="105.5" fill="rgb(214,165,159)" stroke="white"/>
<rect x="545.8" y="280.0" width="24.0" height="105.5" fill="rgb(213,163,156)" stroke="white"/>
<rect x="569.2" y="280.0" width="24.0" height="105.5" fill="rgb(215,167,162)" stroke="white"/>
<rect x="592.7" y="280.0" width="24.0" height="105.5" fill="rgb(217,173,169)" stroke="white"/>
<rect x="616.2" y="280.0" width="24.0" height="105.5" fill="rgb(216,171,166)" stroke="white"/>
<rect x="639.6" y="280.0" width="24.0" height="105.5" fill="rgb(213,162,155)" stroke="white"/>
<rect x="663.1" y="280.0" width="24.0" height="105.5" fill="rgb(213,162,156)" stroke="white"/>
<rect x="686.5" y="280.0" width="24.0" height="105.5" fill="rgb(214,165,159)" stroke="white"/>
<text x="86" y="442.5" text-anchor="end" font-family="Arial" font-size="13">L4</text>
<rect x="100.0" y="385.0" width="24.0" height="105.5" fill="rgb(242,239,245)" stroke="white"/>
<rect x="123.5" y="385.0" width="24.0" height="105.5" fill="rgb(242,240,245)" stroke="white"/>
<rect x="146.9" y="385.0" width="24.0" height="105.5" fill="rgb(242,240,245)" stroke="white"/>
<rect x="170.4" y="385.0" width="24.0" height="105.5" fill="rgb(241,238,244)" stroke="white"/>
<rect x="193.8" y="385.0" width="24.0" height="105.5" fill="rgb(241,238,243)" stroke="white"/>
<rect x="217.3" y="385.0" width="24.0" height="105.5" fill="rgb(241,239,245)" stroke="white"/>
<rect x="240.8" y="385.0" width="24.0" height="105.5" fill="rgb(242,240,246)" stroke="white"/>
<rect x="264.2" y="385.0" width="24.0" height="105.5" fill="rgb(241,239,245)" stroke="white"/>
<rect x="287.7" y="385.0" width="24.0" height="105.5" fill="rgb(241,238,243)" stroke="white"/>
<rect x="311.2" y="385.0" width="24.0" height="105.5" fill="rgb(241,237,242)" stroke="white"/>
<rect x="334.6" y="385.0" width="24.0" height="105.5" fill="rgb(241,238,243)" stroke="white"/>
<rect x="358.1" y="385.0" width="24.0" height="105.5" fill="rgb(241,239,245)" stroke="white"/>
<rect x="381.5" y="385.0" width="24.0" height="105.5" fill="rgb(241,239,245)" stroke="white"/>
<rect x="405.0" y="385.0" width="24.0" height="105.5" fill="rgb(241,237,242)" stroke="white"/>
<rect x="428.5" y="385.0" width="24.0" height="105.5" fill="rgb(240,236,241)" stroke="white"/>
<rect x="451.9" y="385.0" width="24.0" height="105.5" fill="rgb(238,230,235)" stroke="white"/>
<rect x="475.4" y="385.0" width="24.0" height="105.5" fill="rgb(239,232,237)" stroke="white"/>
<rect x="498.8" y="385.0" width="24.0" height="105.5" fill="rgb(238,230,234)" stroke="white"/>
<rect x="522.3" y="385.0" width="24.0" height="105.5" fill="rgb(237,228,231)" stroke="white"/>
<rect x="545.8" y="385.0" width="24.0" height="105.5" fill="rgb(237,227,231)" stroke="white"/>
<rect x="569.2" y="385.0" width="24.0" height="105.5" fill="rgb(238,229,233)" stroke="white"/>
<rect x="592.7" y="385.0" width="24.0" height="105.5" fill="rgb(238,231,235)" stroke="white"/>
<rect x="616.2" y="385.0" width="24.0" height="105.5" fill="rgb(238,229,233)" stroke="white"/>
<rect x="639.6" y="385.0" width="24.0" height="105.5" fill="rgb(237,226,230)" stroke="white"/>
<rect x="663.1" y="385.0" width="24.0" height="105.5" fill="rgb(237,227,230)" stroke="white"/>
<rect x="686.5" y="385.0" width="24.0" height="105.5" fill="rgb(237,227,231)" stroke="white"/>
<text x="111.7" y="512" text-anchor="middle" font-family="Arial" font-size="12">0</text>
<text x="229.0" y="512" text-anchor="middle" font-family="Arial" font-size="12">10</text>
<text x="346.3" y="512" text-anchor="middle" font-family="Arial" font-size="12">20</text>
<text x="463.7" y="512" text-anchor="middle" font-family="Arial" font-size="12">30</text>
<text x="581.0" y="512" text-anchor="middle" font-family="Arial" font-size="12">40</text>
<text x="698.3" y="512" text-anchor="middle" font-family="Arial" font-size="12">50</text>
<text x="410.0" y="540" text-anchor="middle" font-family="Arial" font-size="14">Time horizon (years)</text>
<text x="24" y="280.0" transform="rotate(-90 24,280.0)" text-anchor="middle" font-family="Arial" font-size="14">Layer</text>
<rect x="745" y="320" width="28" height="50" fill="rgb(245,248,255)"/>
<text x="780" y="350" font-family="Arial" font-size="12">0.00</text>
<rect x="745" y="270" width="28" height="50" fill="rgb(231,210,211)"/>
<text x="780" y="300" font-family="Arial" font-size="12">0.19</text>
<rect x="745" y="220" width="28" height="50" fill="rgb(217,172,167)"/>
<text x="780" y="250" font-family="Arial" font-size="12">0.37</text>
<rect x="745" y="170" width="28" height="50" fill="rgb(203,134,123)"/>
<text x="780" y="200" font-family="Arial" font-size="12">0.56</text>
<rect x="745" y="120" width="28" height="50" fill="rgb(189,96,79)"/>
<text x="780" y="150" font-family="Arial" font-size="12">0.74</text>
<rect x="745" y="70" width="28" height="50" fill="rgb(175,58,35)"/>
<text x="780" y="100" font-family="Arial" font-size="12">0.93</text>
<text x="745" y="56" font-family="Arial" font-size="12">Pf</text>
</svg>