<svg xmlns="http://www.w3.org/2000/svg" width="900" height="560" viewBox="0 0 900 560">
<rect width="100%" height="100%" fill="white"/>
<line x1="90" y1="490" x2="870" y2="490" stroke="#333"/>
<line x1="90" y1="70" x2="90" y2="490" stroke="#333"/>
<text x="450.0" y="540" text-anchor="middle" font-family="Arial" font-size="14">Time horizon (years)</text>
<text x="24" y="280.0" transform="rotate(-90 24,280.0)" text-anchor="middle" font-family="Arial" font-size="14">Probability of liquefaction</text>
<line x1="90.0" y1="490" x2="90.0" y2="496" stroke="#333"/>
<text x="90.0" y="514" text-anchor="middle" font-family="Arial" font-size="12">0</text>
<line x1="246.0" y1="490" x2="246.0" y2="496" stroke="#333"/>
<text x="246.0" y="514" text-anchor="middle" font-family="Arial" font-size="12">10</text>
<line x1="402.0" y1="490" x2="402.0" y2="496" stroke="#333"/>
<text x="402.0" y="514" text-anchor="middle" font-family="Arial" font-size="12">20</text>
<line x1="558.0" y1="490" x2="558.0" y2="496" stroke="#333"/>
<text x="558.0" y="514" text-anchor="middle" font-family="Arial" font-size="12">30</text>
<line x1="714.0" y1="490" x2="714.0" y2="496" stroke="#333"/>
<text x="714.0" y="514" text-anchor="middle" font-family="Arial" font-size="12">40</text>
<line x1="870.0" y1="490" x2="870.0" y2="496" stroke="#333"/>
<text x="870.0" y="514" text-anchor="middle" font-family="Arial" font-size="12">50</text>
<line x1="84" y1="490.0" x2="90" y2="490.0" stroke="#333"/>
<line x1="90" y1="490.0" x2="870" y2="490.0" stroke="#e6e6e6"/>
<text x="78" y="494.0" text-anchor="end" font-family="Arial" font-size="12">0.00</text>
<line x1="84" y1="406.0" x2="90" y2="406.0" stroke="#333"/>
<line x1="90" y1="406.0" x2="870" y2="406.0" stroke="#e6e6e6"/>
<text x="78" y="410.0" text-anchor="end" font-family="Arial" font-size="12">0.21</text>
<line x1="84" y1="322.0" x2="90" y2="322.0" stroke="#333"/>
<line x1="90" y1="322.0" x2="870" y2="322.0" stroke="#e6e6e6"/>
<text x="78" y="326.0" text-anchor="end" font-family="Arial" font-size="12">0.42</text>
<line x1="84" y1="238.0" x2="90" y2="238.0" stroke="#333"/>
<line x1="90" y1="238.0" x2="870" y2="238.0" stroke="#e6e6e6"/>
<text x="78" y="242.0" text-anchor="end" font-family="Arial" font-size="12">0.62</text>
<line x1="84" y1="154.0" x2="90" y2="154.0" stroke="#333"/>
<line x1="90" y1="154.0" x2="870" y2="154.0" stroke="#e6e6e6"/>
<text x="78" y="158.0" text-anchor="end" font-family="Arial" font-size="12">0.83</text>
<line x1="84" y1="70.0" x2="90" y2="70.0" stroke="#333"/>
<line x1="90" y1="70.0" x2="870" y2="70.0" stroke="#e6e6e6"/>
<text x="78" y="74.0" text-anchor="end" font-family="Arial" font-size="12">1.04</text>
<polyline points="90.0,190.3 121.2,190.1 152.4,194.7 183.6,196.0 214.8,196.0 246.0,198.6 277.2,198.0 308.4,203.3 339.6,203.5 370.8,205.5 402.0,204.5 433.2,207.5 464.4,209.9 495.6,211.1 526.8,208.7 558.0,148.5 589.2,167.8 620.4,157.6 651.6,126.4 682.8,118.5 714.0,137.0 745.2,155.1 776.4,143.5 807.6,117.1 838.8,115.0 870.0,124.0" fill="none" stroke="#1f77b4" stroke-width="3"/>
<rect x="640" y="70" width="16" height="3" fill="#1f77b4"/>
<text x="662" y="76" font-family="Arial" font-size="12">L1</text>
<polyline points="90.0,290.8 121.2,309.4 152.4,295.8 183.6,277.7 214.8,267.8 246.0,286.0 277.2,303.0 308.4,300.5 339.6,273.2 370.8,265.1 402.0,281.5 433.2,298.0 464.4,289.9 495.6,266.5 526.8,253.3 558.0,189.0 589.2,206.9 620.4,200.1 651.6,172.3 682.8,164.5 714.0,179.7 745.2,199.6 776.4,188.0 807.6,163.8 838.8,160.3 870.0,172.9" fill="none" stroke="#d62728" stroke-width="3"/>
<rect x="640" y="94" width="16" height="3" fill="#d62728"/>
<text x="662" y="100" font-family="Arial" font-size="12">L2</text>
<polyline points="90.0,404.5 121.2,408.7 152.4,404.2 183.6,395.2 214.8,388.7 246.0,397.9 277.2,408.1 308.4,404.1 339.6,389.8 370.8,385.6 402.0,397.9 433.2,403.0 464.4,399.8 495.6,383.5 526.8,382.0 558.0,337.9 589.2,351.9 620.4,345.9 651.6,326.6 682.8,322.2 714.0,331.8 745.2,343.9 776.4,339.0 807.6,321.1 838.8,321.7 870.0,326.4" fill="none" stroke="#2ca02c" stroke-width="3"/>
<rect x="640" y="118" width="16" height="3" fill="#2ca02c"/>
<text x="662" y="124" font-family="Arial" font-size="12">L3</text>
<polyline points="90.0,474.0 121.2,474.5 152.4,474.7 183.6,471.9 214.8,471.0 246.0,473.8 277.2,475.3 308.4,473.0 339.6,471.2 370.8,468.7 402.0,470.3 433.2,473.8 464.4,473.2 495.6,469.2 526.8,467.6 558.0,456.3 589.2,460.1 620.4,455.3 651.6,450.6 682.8,450.1 714.0,453.0 745.2,456.7 776.4,453.9 807.6,448.4 838.8,449.1 870.0,449.6" fill="none" stroke="#9467bd" stroke-width="3"/>
<rect x="640" y="142" width="16" height="3" fill="#9467bd"/>
<text x="662" y="148" font-family="Arial" font-size="12">L4</text>
</svg>